<svg width="115" height="54" viewBox="0 0 115 54" fill="none" xmlns="http://www.w3.org/2000/svg">
<rect x="1.54688" y="1" width="112" height="52" rx="7" stroke="black" stroke-width="2"/>
<path d="M37.068 22.4781V25.6301H37.996C38.5613 25.6301 39.0093 25.5021 39.34 25.2461C39.6813 24.9795 39.852 24.5475 39.852 23.9501C39.852 23.3848 39.6973 23.0008 39.388 22.7981C39.0787 22.5848 38.62 22.4781 38.012 22.4781H37.068ZM37.068 27.0701V30.5581H38.172C38.8653 30.5581 39.404 30.4248 39.788 30.1581C40.172 29.8915 40.364 29.4275 40.364 28.7661C40.364 28.1475 40.188 27.7101 39.836 27.4541C39.484 27.1981 38.924 27.0701 38.156 27.0701H37.068ZM34.572 20.9581H37.98C39.3987 20.9581 40.476 21.1661 41.212 21.5821C41.9587 21.9981 42.332 22.7075 42.332 23.7101C42.332 24.4781 42.1187 25.0648 41.692 25.4701C41.276 25.8648 40.716 26.1368 40.012 26.2861C40.9507 26.3928 41.6653 26.6541 42.156 27.0701C42.6467 27.4755 42.892 28.0781 42.892 28.8781C42.892 29.4648 42.7693 29.9608 42.524 30.3661C42.2787 30.7715 41.9373 31.1021 41.5 31.3581C41.0733 31.6141 40.5613 31.8008 39.964 31.9181C39.3773 32.0248 38.7373 32.0781 38.044 32.0781H34.572V20.9581ZM49.117 27.8381L46.509 32.0781H44.349L48.013 26.3341L44.589 20.9581H47.309L49.789 24.8621L52.189 20.9581H54.349L50.909 26.3661L54.573 32.0781H51.805L49.117 27.8381ZM61.272 32.2381C60.4827 32.2381 59.7467 32.1155 59.064 31.8701C58.3813 31.6248 57.784 31.2675 57.272 30.7981C56.7707 30.3181 56.376 29.7261 56.088 29.0221C55.8 28.3075 55.656 27.4861 55.656 26.5581C55.656 25.6301 55.8 24.8088 56.088 24.0941C56.376 23.3795 56.7707 22.7821 57.272 22.3021C57.784 21.8115 58.3813 21.4435 59.064 21.1981C59.7467 20.9421 60.4827 20.8141 61.272 20.8141C62.0507 20.8141 62.7813 20.9368 63.464 21.1821C64.1573 21.4168 64.7547 21.7741 65.256 22.2541C65.768 22.7341 66.168 23.3261 66.456 24.0301C66.7547 24.7341 66.904 25.5501 66.904 26.4781C66.904 27.4061 66.7547 28.2275 66.456 28.9421C66.168 29.6568 65.768 30.2595 65.256 30.7501C64.7547 31.2408 64.1573 31.6141 63.464 31.8701C62.7813 32.1155 62.0507 32.2381 61.272 32.2381ZM61.272 30.6061C61.7093 30.6061 62.1147 30.5368 62.488 30.3981C62.8613 30.2488 63.1813 30.0141 63.448 29.6941C63.7253 29.3741 63.9387 28.9581 64.088 28.4461C64.248 27.9235 64.328 27.2835 64.328 26.5261C64.328 25.7795 64.248 25.1448 64.088 24.6221C63.9387 24.0995 63.7253 23.6781 63.448 23.3581C63.1813 23.0381 62.8613 22.8088 62.488 22.6701C62.1147 22.5208 61.7093 22.4461 61.272 22.4461C60.824 22.4461 60.4133 22.5208 60.04 22.6701C59.6773 22.8088 59.3573 23.0381 59.08 23.3581C58.8133 23.6781 58.6053 24.0995 58.456 24.6221C58.3067 25.1448 58.232 25.7795 58.232 26.5261C58.232 27.2835 58.3067 27.9235 58.456 28.4461C58.6053 28.9581 58.8133 29.3741 59.08 29.6941C59.3573 30.0141 59.6773 30.2488 60.04 30.3981C60.4133 30.5368 60.824 30.6061 61.272 30.6061ZM72.0179 28.2701C71.9005 28.7501 71.7565 29.1715 71.5859 29.5341C71.4152 29.8968 71.2179 30.2168 70.9939 30.4941H75.9219V22.5421H72.5939C72.5299 23.8328 72.4552 24.9528 72.3699 25.9021C72.2845 26.8408 72.1672 27.6301 72.0179 28.2701ZM77.7779 32.0781H70.1779L69.8419 34.9741H68.0819V30.4941H68.8659C69.1432 30.2808 69.3885 29.9821 69.6019 29.5981C69.8152 29.2141 69.9965 28.7128 70.1459 28.0941C70.3272 27.3261 70.4659 26.3608 70.5619 25.1981C70.6685 24.0355 70.7325 22.6221 70.7539 20.9581H78.3379V30.4941H79.8739V34.9741H78.1139L77.7779 32.0781Z" fill="black"/>
</svg>
