<svg width="168" height="27" viewBox="0 0 168 27" fill="none" xmlns="http://www.w3.org/2000/svg">
<path d="M1.584 26C1.08 26 0.828 25.784 0.828 25.352C0.828 25.16 0.888 24.92 1.008 24.632L10.152 2.744C10.344 2.288 10.548 1.976 10.764 1.808C11.004 1.616 11.352 1.52 11.808 1.52H15.084C15.54 1.52 15.876 1.616 16.092 1.808C16.332 1.976 16.548 2.288 16.74 2.744L25.884 24.632C26.004 24.92 26.064 25.148 26.064 25.316C26.064 25.532 25.992 25.7 25.848 25.82C25.728 25.94 25.548 26 25.308 26H19.728C19.392 26 19.128 25.94 18.936 25.82C18.744 25.676 18.588 25.448 18.468 25.136L17.208 21.68H9.648L8.424 25.136C8.304 25.448 8.148 25.676 7.956 25.82C7.764 25.94 7.488 26 7.128 26H1.584ZM15.624 16.784L13.428 10.664L11.232 16.784H15.624ZM30.3145 26C29.6185 26 29.1265 25.856 28.8385 25.568C28.5745 25.28 28.4425 24.824 28.4425 24.2V3.356C28.4425 2.732 28.5865 2.276 28.8745 1.988C29.1625 1.676 29.6425 1.52 30.3145 1.52H39.1705C42.5065 1.52 44.9665 2.216 46.5505 3.608C48.1345 5 48.9265 7.076 48.9265 9.836C48.9265 13.268 47.6065 15.632 44.9665 16.928L48.5305 24.668C48.6265 24.86 48.6745 25.052 48.6745 25.244C48.6745 25.46 48.5905 25.64 48.4225 25.784C48.2785 25.928 48.0745 26 47.8105 26H42.7705C42.4105 26 42.1225 25.952 41.9065 25.856C41.7145 25.76 41.5705 25.58 41.4745 25.316L38.4865 18.008H35.7145V24.2C35.7145 24.824 35.5705 25.28 35.2825 25.568C34.9945 25.856 34.5025 26 33.8065 26H30.3145ZM38.3785 12.86C40.5625 12.86 41.6545 11.852 41.6545 9.836C41.6545 7.796 40.6225 6.776 38.5585 6.776H35.7145V12.86H38.3785ZM57.7685 26C57.0725 26 56.5805 25.856 56.2925 25.568C56.0045 25.28 55.8605 24.824 55.8605 24.2V6.776H50.3165C49.6445 6.776 49.1885 6.644 48.9485 6.38C48.7085 6.092 48.5885 5.636 48.5885 5.012V3.32C48.5885 2.696 48.7085 2.24 48.9485 1.952C49.1885 1.664 49.6445 1.52 50.3165 1.52H68.7125C69.3845 1.52 69.8405 1.664 70.0805 1.952C70.3445 2.24 70.4765 2.696 70.4765 3.32V5.012C70.4765 5.636 70.3445 6.092 70.0805 6.38C69.8405 6.644 69.3845 6.776 68.7125 6.776H63.1685V24.2C63.1685 24.824 63.0245 25.28 62.7365 25.568C62.4485 25.856 61.9565 26 61.2605 26H57.7685ZM74.0138 26C73.3178 26 72.8258 25.856 72.5378 25.568C72.2738 25.28 72.1418 24.824 72.1418 24.2V3.356C72.1418 2.732 72.2858 2.276 72.5738 1.988C72.8618 1.676 73.3418 1.52 74.0138 1.52H77.5058C78.2018 1.52 78.6938 1.676 78.9818 1.988C79.2698 2.276 79.4138 2.732 79.4138 3.356V20.78H88.7018C89.3738 20.78 89.8298 20.924 90.0698 21.212C90.3098 21.476 90.4297 21.932 90.4297 22.58V24.236C90.4297 24.86 90.3098 25.316 90.0698 25.604C89.8298 25.868 89.3738 26 88.7018 26H74.0138ZM102.518 26.54C98.3422 26.54 95.1622 25.436 92.9782 23.228C90.8182 20.996 89.7382 17.84 89.7382 13.76C89.7382 9.68 90.8182 6.536 92.9782 4.328C95.1622 2.096 98.3422 0.979998 102.518 0.979998C106.694 0.979998 109.862 2.096 112.022 4.328C114.206 6.536 115.298 9.68 115.298 13.76C115.298 17.84 114.206 20.996 112.022 23.228C109.862 25.436 106.694 26.54 102.518 26.54ZM102.518 21.392C104.414 21.392 105.806 20.756 106.694 19.484C107.606 18.212 108.062 16.304 108.062 13.76C108.062 11.24 107.606 9.344 106.694 8.072C105.806 6.8 104.414 6.164 102.518 6.164C100.622 6.164 99.2182 6.8 98.3062 8.072C97.4182 9.344 96.9742 11.24 96.9742 13.76C96.9742 16.304 97.4182 18.212 98.3062 19.484C99.2182 20.756 100.622 21.392 102.518 21.392ZM128.815 26.54C124.639 26.54 121.459 25.436 119.275 23.228C117.115 20.996 116.035 17.84 116.035 13.76C116.035 9.68 117.115 6.536 119.275 4.328C121.459 2.096 124.639 0.979998 128.815 0.979998C132.991 0.979998 136.159 2.096 138.319 4.328C140.503 6.536 141.595 9.68 141.595 13.76C141.595 17.84 140.503 20.996 138.319 23.228C136.159 25.436 132.991 26.54 128.815 26.54ZM128.815 21.392C130.711 21.392 132.103 20.756 132.991 19.484C133.903 18.212 134.359 16.304 134.359 13.76C134.359 11.24 133.903 9.344 132.991 8.072C132.103 6.8 130.711 6.164 128.815 6.164C126.919 6.164 125.515 6.8 124.603 8.072C123.715 9.344 123.271 11.24 123.271 13.76C123.271 16.304 123.715 18.212 124.603 19.484C125.515 20.756 126.919 21.392 128.815 21.392ZM144.572 26C143.876 26 143.384 25.856 143.096 25.568C142.832 25.28 142.7 24.824 142.7 24.2V3.32C142.7 2.696 142.844 2.24 143.132 1.952C143.42 1.664 143.912 1.52 144.608 1.52H148.028C148.508 1.52 148.88 1.58 149.144 1.7C149.432 1.82 149.648 2.06 149.792 2.42L155.012 15.02L160.268 2.42C160.412 2.06 160.616 1.82 160.88 1.7C161.168 1.58 161.552 1.52 162.032 1.52H165.452C166.148 1.52 166.64 1.664 166.928 1.952C167.216 2.24 167.36 2.696 167.36 3.32V24.2C167.36 24.824 167.216 25.28 166.928 25.568C166.664 25.856 166.184 26 165.488 26H162.644C161.948 26 161.456 25.856 161.168 25.568C160.88 25.28 160.736 24.824 160.736 24.2V12.5L157.244 20.312C157.004 20.912 156.74 21.344 156.452 21.608C156.164 21.848 155.684 21.968 155.012 21.968C154.364 21.968 153.896 21.848 153.608 21.608C153.32 21.344 153.044 20.912 152.78 20.312L149.324 12.5V24.2C149.324 24.824 149.18 25.28 148.892 25.568C148.604 25.856 148.112 26 147.416 26H144.572Z" fill="#4063C4"/>
</svg>
