<svg width="69" height="69" viewBox="0 0 69 69" fill="none" xmlns="http://www.w3.org/2000/svg">
<circle cx="34.5" cy="34.5" r="34.5" fill="black"/>
<path d="M36.8257 19.0007C36.6178 18.9974 36.4975 19.0066 36.4975 19.0066C36.1592 19.034 35.8512 19.2127 35.6596 19.4929L21.544 40.0511C21.4292 40.2196 21.3624 40.416 21.3506 40.6195L21.002 46.3062C20.9786 46.7003 21.1635 47.0778 21.4892 47.3009C21.815 47.5241 22.2338 47.5602 22.5928 47.396L27.7727 45.0288C27.9582 44.944 28.1172 44.8103 28.2327 44.6421L42.3453 24.0839C42.5383 23.804 42.5942 23.4518 42.4977 23.1258C42.4977 23.1258 41.9642 21.2724 40.192 20.0555C38.8628 19.1427 37.4494 19.0105 36.8257 19.0007ZM37.0952 21.3738C37.4147 21.3757 38.0486 21.3113 38.9205 21.91C39.7901 22.5072 39.957 23.1162 40.0748 23.4159L38.4605 25.7655L35.4838 23.7206L37.0952 21.3738ZM34.2094 25.578L37.189 27.6201L26.5539 43.1098L23.3604 44.5717L23.5772 41.0677L34.2094 25.578ZM32.6244 45.2485C32.003 45.2485 31.4993 45.7522 31.4993 46.3735C31.4993 46.9949 32.003 47.4986 32.6244 47.4986C33.2457 47.4986 33.7494 46.9949 33.7494 46.3735C33.7494 45.7522 33.2457 45.2485 32.6244 45.2485ZM38.6245 45.2485C38.0032 45.2485 37.4995 45.7522 37.4995 46.3735C37.4995 46.9949 38.0032 47.4986 38.6245 47.4986C39.2459 47.4986 39.7496 46.9949 39.7496 46.3735C39.7496 45.7522 39.2459 45.2485 38.6245 45.2485ZM44.6247 45.2485C44.0034 45.2485 43.4997 45.7522 43.4997 46.3735C43.4997 46.9949 44.0034 47.4986 44.6247 47.4986C45.246 47.4986 45.7497 46.9949 45.7497 46.3735C45.7497 45.7522 45.246 45.2485 44.6247 45.2485Z" fill="white"/>
</svg>
