<svg width="69" height="69" viewBox="0 0 69 69" fill="none" xmlns="http://www.w3.org/2000/svg">
<circle cx="34.5" cy="34.5" r="34.5" fill="black"/>
<path d="M34.1949 36.5693C33.7144 36.5707 33.3251 36.9598 33.3237 37.44V48.0623C33.3237 48.5433 33.7141 48.933 34.1949 48.933C34.6759 48.933 35.066 48.5433 35.066 48.0623V37.44C35.0647 36.9598 34.6756 36.5707 34.1949 36.5693Z" fill="white"/>
<path d="M39.7701 36.5693C39.2896 36.5707 38.9003 36.9598 38.8989 37.44V48.0623C38.8989 48.5433 39.2893 48.933 39.7701 48.933C40.2511 48.933 40.6412 48.5433 40.6412 48.0623V37.44C40.6399 36.9598 40.2508 36.5707 39.7701 36.5693Z" fill="white"/>
<path d="M28.6194 36.5693C28.1389 36.5707 27.7497 36.9598 27.7483 37.44V48.0623C27.7483 48.5433 28.1387 48.933 28.6194 48.933C29.1005 48.933 29.4906 48.5433 29.4906 48.0623V37.44C29.4892 36.9598 29.1002 36.5707 28.6194 36.5693Z" fill="white"/>
<path d="M45.8334 18.7813H40.8507V16.2476C40.8501 15.1849 39.9883 14.3237 38.9252 14.3234H29.4648C28.4014 14.3237 27.5398 15.1849 27.5392 16.2476V18.79H22.5565C20.6389 18.7906 19.002 20.1736 18.6829 22.0632C18.3636 23.9529 19.4561 25.7968 21.267 26.4259C21.2498 26.4882 21.2411 26.5527 21.2408 26.6174V50.2825C21.2419 52.6864 23.1914 54.6349 25.5966 54.6359H42.8018C45.207 54.6349 47.157 52.6864 47.1576 50.2825V26.6174C47.1584 26.5527 47.1494 26.4882 47.1314 26.4259C48.9448 25.7947 50.0367 23.9472 49.7155 22.0551C49.3942 20.163 47.7535 18.7797 45.8334 18.7813ZM29.2905 16.2476C29.2908 16.1467 29.3725 16.0653 29.4732 16.0648H38.9342C39.0349 16.0653 39.1166 16.1467 39.1168 16.2476V18.79H29.2905V16.2476ZM42.7934 52.8946H25.5966C24.1551 52.8905 22.9875 51.7232 22.9831 50.2825V26.6436H45.4153V50.2825C45.4071 51.7249 44.2365 52.8913 42.7934 52.8946ZM45.8334 24.9022H22.5565C21.3486 24.9022 20.3697 23.9238 20.3697 22.7168C20.3697 21.5098 21.3486 20.5314 22.5565 20.5314H45.8334C47.0413 20.5314 48.0203 21.5098 48.0203 22.7168C48.0203 23.9238 47.0413 24.9022 45.8334 24.9022Z" fill="white"/>
</svg>
